<?xml version="1.0" encoding="utf-8"?>
<!-- Generator: Adobe Illustrator 26.0.2, SVG Export Plug-In . SVG Version: 6.00 Build 0)  -->
<svg version="1.1" id="Capa_1" xmlns="http://www.w3.org/2000/svg" xmlns:xlink="http://www.w3.org/1999/xlink" x="0px" y="0px"
	 viewBox="0 0 98 96" style="enable-background:new 0 0 98 96;" xml:space="preserve">
<style type="text/css">
	.st0{fill:#FFFFFF;}
</style>
<g>
	<path class="st0" d="M85.8,11.2H12.2C5.5,11.2,0,16.7,0,23.5v49c0,6.8,5.5,12.2,12.2,12.2h73.5c6.8,0,12.2-5.5,12.2-12.2v-49
		C98,16.7,92.5,11.2,85.8,11.2z M65.6,43.9l25.9-22.2c0.2,0.6,0.4,1.1,0.4,1.8v49c0,0.4-0.2,0.8-0.2,1.2L65.6,43.9z M85.8,17.4
		c0.4,0,0.8,0.2,1.1,0.2L49,50.1L11.1,17.6c0.4-0.1,0.7-0.2,1.1-0.2H85.8z M6.4,73.7c-0.1-0.4-0.2-0.8-0.2-1.2v-49
		c0-0.6,0.2-1.2,0.4-1.8l25.9,22.2L6.4,73.7z M12.2,78.6c-0.6,0-1.2-0.2-1.7-0.3l26.6-30.4l10,8.5c0.6,0.5,1.3,0.7,2,0.7
		c0.7,0,1.4-0.2,2-0.7l10-8.5l26.6,30.4c-0.6,0.2-1.1,0.3-1.7,0.3H12.2z"/>
</g>
</svg>
